# xmcd CD database file
#
# Track frame offsets:
#	182
#	17920
#	32395
#	43082
#	59495
#	71370
#	86495
#	101807
#	117282
#	133757
#	146582
#	162895
#	175220
#	192945
#	206682
#	222032
#	236782
#	248632
#	268757
#	279620
#	293882
#	309532
#
# Disc length: 4335 seconds
#
# Revision: 3
# Processed by: cddbd v1.5PL3 Copyright (c) Steve Scherf et al.
# Submitted via: CDex 1.40Release
#
DISCID=4c10ed16
DTITLE=Rocío Durcal - Mis mejores canciones
DYEAR=1998
DGENRE=Latin
TTITLE0=Quédate conmigo esta noche
TTITLE1=Me gustas mucho
TTITLE2=Cuando decidas volver
TTITLE3=No lastimes más
TTITLE4=Que el mundo ruede
TTITLE5=La diferencia
TTITLE6=Jamás te dejaré
TTITLE7=Luz de luna
TTITLE8=La gata bajo la lluvia
TTITLE9=Me nace del corazón
TTITLE10=Me despertó la realidad
TTITLE11=Mía un año
TTITLE12=Con todo y mi tristeza
TTITLE13=Ya te olvidé
TTITLE14=Tenías que ser tan cruel
TTITLE15=Fué tan poco tu cariño
TTITLE16=Hoy por fín
TTITLE17=Como tu mujer
TTITLE18=Tu abandono
TTITLE19=Cuando yo quiera has de volver
TTITLE20=La muerte del palomo
TTITLE21=No me vuelvo a enamorar
EXTD=All tracks written and produced by Silverbeam\n\nHttp://www.silverbeam.com YEAR: 1998 ID3G: 86
EXTT0=Placido Domingo
EXTT1=Julia Varady
EXTT2=Alfredo Kraus
EXTT3=Take my love...
EXTT4=No One...
EXTT5=I'm falling in love...
EXTT6=I won't do it...
EXTT7=My call...
EXTT8=Our Song
EXTT9=Life
EXTT10=It hurts to be alone...
EXTT11=I want to be...
EXTT12=A Million Roses...
EXTT13=There are better ones than her...\n-A dúo con Marc Anthony-
EXTT14=In love...
EXTT15=You're playing with fire...
EXTT16=Now, and forever...
EXTT17=Wings of Paper...
EXTT18=What would I do without you?
EXTT19=Written and composed by: Biagio Marini\n\nSonate da chiesa e da camera, Venise, 1655
EXTT20=Written and composed by: Claudio Monteverdi\n\n
EXTT21=Written and composed by: Claudio Monteverdi\n\nGhirlanda Sacra, Venise, 1625
PLAYORDER=
